#N canvas 932 131 450 504 12;
#X floatatom 184 113 5 0 0 0 - - -;
#X obj 184 152 bng 15 250 50 0 empty empty empty 17 7 0 10 -262144
-1 -1;
#X obj 184 271 readsf~;
#X obj 184 295 *~ 0.8;
#X obj 105 398 throw~ left;
#X obj 255 396 throw~ right;
#X obj 31 61 tgl 15 0 empty empty empty 17 7 0 10 -262144 -1 -1 0 1
;
#X obj 31 23 inlet;
#X obj 31 94 switch~;
#X obj 184 65 r reachedFinishLine;
#X msg 184 198 open EndingMusic.wav \, 1;
#X obj 328 57 cnv 15 15 30 empty empty empty 20 12 0 14 -203904 -66577
0;
#X connect 0 0 1 0;
#X connect 1 0 10 0;
#X connect 2 0 3 0;
#X connect 3 0 4 0;
#X connect 3 0 5 0;
#X connect 6 0 8 0;
#X connect 7 0 6 0;
#X connect 9 0 0 0;
#X connect 10 0 2 0;
