#N canvas 433 74 1076 689 12;
#X obj 365 364 sel 1;
#X obj 365 388 bng 15 250 50 0 empty empty empty 17 7 0 10 -262144
-1 -1;
#X obj 173 391 bng 15 250 50 0 empty empty empty 17 7 0 10 -262144
-1 -1;
#X obj 173 367 sel -1;
#X obj 365 488 readsf~;
#X msg 365 434 open swoosh.wav \, 1;
#X obj 173 496 readsf~;
#X msg 173 435 open swoosh.wav \, 1;
#X obj 364 593 throw~ right;
#X obj 172 591 throw~ left;
#X obj 31 61 tgl 15 0 empty empty empty 17 7 0 10 -262144 -1 -1 0 1
;
#X obj 31 23 inlet;
#X obj 31 94 switch~;
#X obj 217 26 r laneChanged;
#X floatatom 217 133 5 0 0 0 - - -;
#X floatatom 433 121 5 0 0 0 - - -;
#X obj 269 188 -;
#X floatatom 269 248 5 0 0 0 - - -;
#X floatatom 377 214 5 0 0 0 - - -;
#X obj 377 169 +;
#X obj 433 42 loadbang;
#X obj 262 59 loadbang;
#X msg 433 81 1;
#X msg 242 96 1;
#X text 455 358 When the ball moves to the left \, user receives sound
on one channel (left) \; viceversa \, they receive it from the right
if they go right., f 76;
#X text 495 114 here we store the last lane position of the ball \,
in order to subtract it from the new lane position when the player
moves to another lane \, and obtain the direction of the movement to
play the swoosh sound accordingly.;
#X obj 185 23 cnv 15 15 30 empty empty empty 20 12 0 14 -203904 -66577
0;
#X connect 0 0 1 0;
#X connect 1 0 5 0;
#X connect 2 0 7 0;
#X connect 3 0 2 0;
#X connect 4 0 8 0;
#X connect 5 0 4 0;
#X connect 6 0 9 0;
#X connect 7 0 6 0;
#X connect 10 0 12 0;
#X connect 11 0 10 0;
#X connect 13 0 14 0;
#X connect 14 0 16 0;
#X connect 15 0 16 1;
#X connect 15 0 19 1;
#X connect 16 0 17 0;
#X connect 17 0 3 0;
#X connect 17 0 0 0;
#X connect 17 0 19 0;
#X connect 18 0 15 0;
#X connect 19 0 18 0;
#X connect 20 0 22 0;
#X connect 21 0 23 0;
#X connect 22 0 15 0;
#X connect 23 0 14 0;
