#N canvas 45 6 1536 781 12;
#X msg 21 32 \; pd dsp 1;
#X msg 21 74 \; pd dsp 0;
#X obj 564 35 r start_note;
#X obj 672 35 r peak_level;
#X obj 780 35 r attack;
#X obj 867 35 r sustain_level;
#X obj 1003 36 r decay;
#X obj 1075 36 r release;
#X obj 563 61 bng 15 250 50 0 empty empty empty 17 7 0 10 -262144 -1
-1;
#X floatatom 672 59 5 0 0 0 - - -;
#X floatatom 780 59 5 0 0 0 - - -;
#X floatatom 867 59 5 0 0 0 - - -;
#X floatatom 1003 60 5 0 0 0 - - -;
#X floatatom 1075 60 5 0 0 0 - - -;
#X obj 742 168 pack f f f f f f f;
#X obj 1191 37 r sustain;
#X floatatom 1191 61 5 0 0 0 - - -;
#X obj 1297 38 r attack;
#X obj 1385 39 r decay;
#X floatatom 1297 62 5 0 0 0 - - -;
#X floatatom 1388 67 5 0 0 0 - - -;
#X obj 1388 90 t b f;
#X obj 1296 191 +;
#X obj 1296 215 t b f;
#X floatatom 1296 239 5 0 0 0 - - -;
#X obj 1195 252 +;
#X floatatom 1195 276 5 0 0 0 - - -;
#X obj 741 270 vline~;
#X msg 1181 362 1 300 \, 0.7 100 300 \, 0 100 550;
#X floatatom 785 624 5 0 0 0 - - -;
#X obj 785 486 vsl 15 128 0 1000 0 0 empty empty empty 0 -9 0 10 -262144
-1 -1 12700 1;
#X floatatom 933 626 5 0 0 0 - - -;
#X obj 933 489 vsl 15 128 0 1000 0 0 empty empty empty 0 -9 0 10 -262144
-1 -1 0 1;
#X floatatom 1208 626 5 0 0 0 - - -;
#X obj 1208 489 vsl 15 128 0 1000 0 0 empty empty empty 0 -9 0 10 -262144
-1 -1 889 1;
#X floatatom 1343 625 5 0 0 0 - - -;
#X obj 1343 487 vsl 15 128 0 1000 0 0 empty empty empty 0 -9 0 10 -262144
-1 -1 1270 1;
#X msg 1342 463 100;
#X text 782 440 Attack;
#X text 929 439 Decay;
#X text 1206 439 Sustain;
#X text 1338 439 Release;
#X obj 727 463 loadbang;
#X obj 874 463 loadbang;
#X obj 1148 462 loadbang;
#X obj 1287 462 loadbang;
#X obj 636 488 vsl 15 128 0 200 0 0 empty empty empty 0 -9 0 10 -262144
-1 -1 12700 1;
#X obj 578 465 loadbang;
#X obj 785 674 s attack;
#X obj 933 670 s decay;
#X floatatom 636 648 5 0 0 0 - - -;
#X obj 636 674 s peak_level;
#X obj 636 625 / 100;
#X text 633 442 Peak level;
#X obj 1007 687 r peak_level;
#X obj 1007 735 *;
#X obj 1055 714 t b f;
#X obj 1055 486 vsl 15 128 0 100 0 0 empty empty empty 0 -9 0 10 -262144
-1 -1 0 1;
#X obj 997 463 loadbang;
#X floatatom 1055 646 5 0 0 0 - - -;
#X obj 1055 623 / 100;
#X text 1052 440 Sustain level;
#X obj 1208 673 s sustain;
#X obj 1343 674 s release;
#X obj 1007 758 s sustain_level;
#X text 1042 736 Percentage of peak level;
#X msg 742 221 \$2 \$3 \, \$4 \$5 \$3 \, 0 \$6 \$7;
#X msg 1208 463 70;
#X msg 1055 463 0;
#X msg 933 463 0;
#X msg 785 463 1000;
#X msg 636 465 1000;
#X obj 444 58 *~ 0.8;
#X obj 6 337 cnv 15 500 400 empty empty empty 20 12 0 14 -261682 -66577
0;
#X obj 37 600 bng 30 250 50 0 empty empty empty 17 7 0 10 -262144 -1
-1;
#X obj 36 488 tgl 30 0 empty empty empty 17 7 0 10 -262130 -1 -1 1
1;
#X text 74 491 metro on/off;
#X obj 37 694 s start_note;
#X msg 208 401 500;
#X text 255 438 <- when this number decreases;
#X text 275 457 alarm becomes quicker;
#X text 272 478 (more urgent);
#X obj 208 367 loadbang;
#X obj 217 96 switch~;
#X obj 217 70 tgl 15 0 empty empty empty 17 7 0 10 -262144 -1 -1 1
1;
#X obj 217 36 inlet;
#X obj 32 377 loadbang;
#X obj 297 346 r wallDistanceLane1;
#X obj 208 452 vsl 15 128 100 2000 0 0 empty empty empty 0 -9 0 10
-262144 -1 -1 3743 1;
#X obj 278 186 r laneChanged;
#X obj 278 225 sel 1;
#X obj 559 365 *~;
#X obj 356 226 sel 2;
#X obj 469 270 *~ 0.4;
#X obj 551 403 throw~ ch2;
#X floatatom 208 652 5 0 0 0 - - -;
#X obj 280 400 +;
#X floatatom 243 423 5 0 0 0 - - -;
#X obj 208 613 +;
#X obj 37 573 metro 100;
#X obj 445 34 osc~ 360;
#X msg 327 375 60;
#X msg 256 562 50;
#X connect 2 0 8 0;
#X connect 3 0 9 0;
#X connect 4 0 10 0;
#X connect 5 0 11 0;
#X connect 6 0 12 0;
#X connect 7 0 13 0;
#X connect 8 0 14 0;
#X connect 9 0 14 1;
#X connect 10 0 14 2;
#X connect 11 0 14 3;
#X connect 12 0 14 4;
#X connect 13 0 14 5;
#X connect 14 0 66 0;
#X connect 15 0 16 0;
#X connect 16 0 25 0;
#X connect 17 0 19 0;
#X connect 18 0 20 0;
#X connect 19 0 22 0;
#X connect 20 0 21 0;
#X connect 21 0 22 1;
#X connect 22 0 23 0;
#X connect 23 0 24 0;
#X connect 23 0 25 1;
#X connect 25 0 26 0;
#X connect 25 0 14 6;
#X connect 27 0 91 1;
#X connect 28 0 27 0;
#X connect 29 0 48 0;
#X connect 30 0 29 0;
#X connect 31 0 49 0;
#X connect 32 0 31 0;
#X connect 33 0 62 0;
#X connect 34 0 33 0;
#X connect 35 0 63 0;
#X connect 36 0 35 0;
#X connect 37 0 36 0;
#X connect 42 0 70 0;
#X connect 43 0 69 0;
#X connect 44 0 67 0;
#X connect 45 0 37 0;
#X connect 46 0 52 0;
#X connect 47 0 71 0;
#X connect 50 0 51 0;
#X connect 52 0 50 0;
#X connect 54 0 55 0;
#X connect 55 0 64 0;
#X connect 56 0 55 0;
#X connect 56 1 55 1;
#X connect 57 0 60 0;
#X connect 58 0 68 0;
#X connect 59 0 56 0;
#X connect 60 0 59 0;
#X connect 66 0 27 0;
#X connect 67 0 34 0;
#X connect 68 0 57 0;
#X connect 69 0 32 0;
#X connect 70 0 30 0;
#X connect 71 0 46 0;
#X connect 72 0 91 0;
#X connect 74 0 77 0;
#X connect 75 0 99 0;
#X connect 78 0 88 0;
#X connect 82 0 78 0;
#X connect 84 0 83 0;
#X connect 85 0 84 0;
#X connect 86 0 75 0;
#X connect 87 0 96 0;
#X connect 88 0 98 0;
#X connect 89 0 90 0;
#X connect 89 0 92 0;
#X connect 90 0 91 0;
#X connect 91 0 94 0;
#X connect 92 0 93 0;
#X connect 93 0 94 0;
#X connect 95 0 99 1;
#X connect 96 0 97 0;
#X connect 97 0 88 0;
#X connect 98 0 95 0;
#X connect 99 0 74 0;
#X connect 100 0 72 0;
#X connect 101 0 96 1;
#X connect 102 0 98 1;
