#N canvas -8 -8 1536 781 10;
#X text 185 619 Args: object ID;
#X text 629 619 Args: object ID \, n. of modes \, n. of pickups;
#X text 340 429 Args: 1st obj ID \, 2nd obj ID \, n. of outlets;
#X msg 538 9 Sound Design Toolkit \; (C) 2001 - 2016 \; \; Project
SOb - soundobject.org \; Project CLOSED - closed.ircam.fr \; Project
NIW - soundobject.org/niw \; Project SkAT-VG - skatvg.eu;
#X obj 267 97 vsl 15 128 1e-005 1 1 0 empty grain empty 0 -9 0 10 -262144
-1 -1 12700 1;
#X obj 379 97 vsl 15 128 0 200 0 0 empty depth empty 0 -9 0 10 -262144
-1 -1 10700 1;
#X obj 138 96 vsl 15 128 0 10 0 0 empty velocity empty 0 -9 0 10 -262144
-1 -1 5300 1;
#X floatatom 379 233 5 0 0 0 - - -;
#X floatatom 267 233 6 0 0 0 - - -;
#X floatatom 138 233 5 0 0 0 - - -;
#X obj 556 121 r pd;
#X obj 556 148 route dsp;
#X obj 556 173 select 1;
#X obj 366 458 vsl 30 64 1000 100000 0 0 empty gain empty 0 -9 0 10
-262144 -1 -1 573 1;
#X obj 138 374 rolling~;
#X obj 179 401 r ro;
#X msg 50 253 mass \$1;
#X obj 70 591 r hammerro;
#X obj 489 592 r objectro;
#X obj 50 97 vsl 15 128 0.001 1 0 0 empty mass empty 0 -9 0 10 -262144
-1 -1 3890 1;
#X floatatom 50 234 5 0 0 0 - - -;
#X msg 138 252 velocity \$1;
#X text 8 59 Rolling mass (Kg) and velocity (m/s);
#X msg 267 252 grain \$1;
#X text 243 59 Surface grain;
#X msg 379 252 depth \$1;
#X text 354 60 Grain depth;
#X obj 77 286 noise~;
#X obj 77 313 lop~ 20;
#X obj 77 341 *~ 10;
#X msg 72 551 strike 0 0;
#X obj 321 533 *~ 50000;
#X obj 138 429 impact~ hammerro objectro 2;
#X obj 50 618 inertial hammerro;
#X obj 489 619 modal objectro 3 1;
#X text 48 3 rolling~ - Generates a stochastic sequence of impacts
to form a rolling sound, f 77;
#X obj 630 137 r startGame;
#X obj 805 118 r pd;
#X obj 805 145 route dsp;
#X obj 827 74 switch~;
#X obj 827 48 tgl 15 0 empty empty empty 17 7 0 10 -262144 -1 -1 0
1;
#X obj 827 14 inlet;
#X obj 322 659 throw~ ch1;
#X obj 404 658 throw~ ch2;
#X obj 896 134 r laneChanged;
#X obj 805 170 select 3;
#X msg 556 198 \; hammerro fragmentSize 1 \; objectro freqs 500 1300
1700 \; objectro decays 0.03 0.02 0.01 \; objectro pickup 0 100 100
100 \; objectro activeModes 3 \; objectro fragmentSize 1 \; ro stiffness
1e+008 \; ro dissipation 0.8 \; ro shape 1.5 \; ro contact0 0 \; ro
contact1 0 \; mass 0.307 \; velocity 4.173 \; grain 1 \; depth 168.5
\; gain 10000 \;;
#X msg 805 195 \; hammerro fragmentSize 1 \; objectro freqs 500 1300
1700 \; objectro decays 0.03 0.02 0.01 \; objectro pickup 0 100 100
100 \; objectro activeModes 3 \; objectro fragmentSize 1 \; ro stiffness
1e+008 \; ro dissipation 0.8 \; ro shape 1.5 \; ro contact0 0 \; ro
contact1 0 \; mass 0.063 \; velocity 4.173 \; grain 0.0004 \; depth
168.5 \; gain 15000 \;;
#X connect 4 0 8 0;
#X connect 5 0 7 0;
#X connect 6 0 9 0;
#X connect 7 0 25 0;
#X connect 8 0 23 0;
#X connect 9 0 21 0;
#X connect 10 0 11 0;
#X connect 11 0 12 0;
#X connect 12 0 46 0;
#X connect 13 0 31 1;
#X connect 14 0 32 0;
#X connect 15 0 32 0;
#X connect 16 0 14 0;
#X connect 16 0 33 0;
#X connect 17 0 33 0;
#X connect 18 0 34 0;
#X connect 19 0 20 0;
#X connect 20 0 16 0;
#X connect 21 0 14 0;
#X connect 23 0 14 0;
#X connect 25 0 14 0;
#X connect 27 0 28 0;
#X connect 28 0 29 0;
#X connect 29 0 14 0;
#X connect 30 0 33 0;
#X connect 31 0 42 0;
#X connect 31 0 43 0;
#X connect 32 1 31 0;
#X connect 36 0 12 0;
#X connect 37 0 38 0;
#X connect 38 0 45 0;
#X connect 40 0 39 0;
#X connect 41 0 40 0;
#X connect 44 0 45 0;
#X connect 45 0 47 0;
