#N canvas -8 -8 1536 781 12;
#X obj 45 129 delay 1000;
#X msg 45 232 \; pd dsp \$1;
#X obj 45 160 tgl 30 0 empty empty empty 17 7 0 10 -162280 -1 -1 1
1;
#X obj 54 212 s global_volume_fade;
#X text 85 165 <-Click to start/stop DSP;
#X obj 437 66 catch~ ch1;
#X obj 482 92 catch~ ch2;
#X obj 437 220 *~;
#X obj 437 262 dac~ 1 2;
#X obj 562 182 line~;
#X obj 562 154 pack 0 500;
#X obj 562 125 r global_volume_fade;
#X obj 482 220 *~;
#X obj 40 485 cnv 15 120 60 empty empty empty 20 12 0 14 -261682 -66577
0;
#X obj 248 485 cnv 15 120 60 empty empty empty 20 12 0 14 -203904 -66577
0;
#X obj 293 505 OSC;
#X obj 445 485 cnv 15 120 60 empty empty empty 20 12 0 14 -204786 -66577
0;
#X obj 45 66 loadbang;
#X obj 77 505 teensy;
#X obj 463 505 sound_engine;
#X text 431 305 "Catch~" receives sounds from "Throw~" objects in the
"OSC" and "sound_engine" subpatches.;
#X connect 0 0 2 0;
#X connect 2 0 1 0;
#X connect 2 0 3 0;
#X connect 5 0 7 0;
#X connect 6 0 12 0;
#X connect 7 0 8 0;
#X connect 9 0 7 1;
#X connect 9 0 12 1;
#X connect 10 0 9 0;
#X connect 11 0 10 0;
#X connect 12 0 8 1;
#X connect 17 0 0 0;
