#N canvas -8 -8 1536 781 12;
#X obj 920 127 mrpeach/unpackOSC;
#X obj 920 103 netreceive -u -b 12000;
#X floatatom 918 209 5 0 0 0 - - -;
#X floatatom 996 210 5 0 0 0 - - -;
#X floatatom 1063 209 5 0 0 0 - - -;
#X floatatom 1136 211 5 0 0 0 - - -;
#X floatatom 1215 211 5 0 0 0 - - -;
#X obj 1064 292 bng 15 250 50 0 empty empty empty 17 7 0 10 -262144
-1 -1;
#X obj 1064 392 readsf~;
#X obj 1064 268 sel 2000;
#X obj 1164 280 s wallDistanceLane1;
#X obj 1340 317 s wallDistanceLane2;
#X obj 950 285 s laneChanged;
#X floatatom 1300 211 5 0 0 0 - - -;
#X obj 1300 234 s startGame;
#X obj 920 150 mrpeach/routeOSC /frameRateChanged /laneChanged /hitWall
/wallDistanceLane1 /wallDistanceLane2 /startGame;
#X obj 53 321 mrpeach/packOSC;
#X obj 53 345 cyclone/prepend send;
#X obj 53 449 netsend -u -b;
#X obj 53 120 r _dir;
#X msg 53 247 /changeLane \$1;
#X msg 106 394 connect 127.0.0.1 32000;
#X obj 370 268 sel 1;
#X obj 370 292 bng 15 250 50 0 empty empty empty 17 7 0 10 -262144
-1 -1;
#X obj 592 295 bng 15 250 50 0 empty empty empty 17 7 0 10 -262144
-1 -1;
#X obj 592 271 sel -1;
#X obj 370 392 readsf~;
#X msg 370 338 open swoosh.wav \, 1;
#X obj 592 400 readsf~;
#X msg 592 339 open swoosh.wav \, 1;
#X obj 369 497 throw~ ch1;
#X obj 591 495 throw~ ch2;
#X obj 1065 513 throw~ ch1;
#X obj 1166 512 throw~ ch2;
#X obj 234 352 loadbang;
#X text 52 27 Sending IMU data to move ball on Processing. Movement
changes the lane the ball is on. (-1 = left \, 1 = right);
#X text 347 568 When the ball moves to the left \, user receives sound
on one channel (left) \; viceversa \, they receive it from the right
if they go right.;
#X obj 124 691 bng 15 250 50 0 empty empty empty 17 7 0 10 -262144
-1 -1;
#X msg 125 737 /clap;
#X obj 124 521 adc~;
#X obj 123 567 *~ 10;
#X obj 124 649 threshold~ 2 500 0.1 1000;
#X obj 43 154 cnv 15 60 60 empty empty empty 20 12 0 14 -261682 -66577
0;
#X floatatom 53 174 5 0 0 0 - - -;
#X text 912 34 Receiving OSC messages from Processing;
#X obj 208 737 s jumpSound;
#X msg 1064 338 open bump.wav \, 1;
#X obj 1064 416 *~ 0.8;
#X connect 0 0 15 0;
#X connect 1 0 0 0;
#X connect 3 0 12 0;
#X connect 4 0 9 0;
#X connect 5 0 10 0;
#X connect 6 0 11 0;
#X connect 7 0 46 0;
#X connect 8 0 47 0;
#X connect 9 0 7 0;
#X connect 13 0 14 0;
#X connect 15 0 2 0;
#X connect 15 1 3 0;
#X connect 15 2 4 0;
#X connect 15 3 5 0;
#X connect 15 4 6 0;
#X connect 15 5 13 0;
#X connect 16 0 17 0;
#X connect 17 0 18 0;
#X connect 19 0 43 0;
#X connect 20 0 16 0;
#X connect 21 0 18 0;
#X connect 22 0 23 0;
#X connect 23 0 27 0;
#X connect 24 0 29 0;
#X connect 25 0 24 0;
#X connect 26 0 30 0;
#X connect 27 0 26 0;
#X connect 28 0 31 0;
#X connect 29 0 28 0;
#X connect 34 0 21 0;
#X connect 37 0 38 0;
#X connect 37 0 45 0;
#X connect 38 0 16 0;
#X connect 39 0 40 0;
#X connect 40 0 41 0;
#X connect 41 0 37 0;
#X connect 43 0 20 0;
#X connect 43 0 22 0;
#X connect 43 0 25 0;
#X connect 46 0 8 0;
#X connect 47 0 32 0;
#X connect 47 0 33 0;
