#N canvas 409 99 944 644 10;
#X obj 209 194 tgl 15 0 empty empty empty 17 7 0 10 -262144 -1 -1 0
1;
#X obj 209 124 tgl 15 0 empty empty empty 17 7 0 10 -262144 -1 -1 0
1;
#X text 230 126 Enable DSP inside the patch;
#X obj 209 226 _alarmsound;
#X obj 210 154 _rolling;
#X text 209 41 When the game is started \, the sound engine starts
playing sounds based on OSC messages.;
#X obj 21 45 cnv 15 100 60 empty empty empty 20 12 0 14 -203904 -66577
0;
#X obj 36 62 r startGame;
#X obj 209 286 jump;
#X obj 209 259 tgl 15 0 empty empty empty 17 7 0 10 -262144 -1 -1 0
1;
#X connect 0 0 3 0;
#X connect 1 0 4 0;
#X connect 7 0 1 0;
#X connect 7 0 0 0;
#X connect 7 0 9 0;
#X connect 9 0 8 0;
