#N canvas -8 0 1535 781 12;
#X obj 25 72 cnv 15 800 500 empty empty empty 20 12 0 14 -261682 -66577
0;
#X msg 50 132 close;
#X msg 39 105 devices;
#X obj 39 349 s;
#X obj 39 327 serial_print any;
#X obj 348 135 unpack s int;
#X obj 348 107 r dir;
#X obj 415 170 cnv 15 80 40 empty empty empty 20 12 0 14 -262130 -66577
0;
#X floatatom 429 179 8 0 0 0 - - -;
#X obj 429 226 s _dir;
#X text 23 15 Opening serial communication and then receiving data
about direction of IMU movement from Teensy;
#X obj 1030 529 _format_serial_messages;
#X obj 1030 557 s to_Teensy;
#X obj 159 236 r to_Teensy;
#X obj 39 303 comport 5 115200;
#X text 1028 17 Receiving command to vibrate motors when users go out
of the track in Processing;
#X msg 1030 313 motor1_pattern1 \$1;
#X msg 1030 280 0;
#X msg 1077 281 1;
#X msg 1280 277 0;
#X msg 1280 310 motor2_pattern1 \$1;
#X msg 1327 278 1;
#X text 384 275 "dir" is sent to subpatch "OSC" to deal with movement
of the ball on Processing.;
#X obj 991 162 sel 0;
#X obj 1047 162 sel 1;
#X obj 1100 163 sel 2;
#X obj 1155 163 sel 3;
#X obj 1030 73 cnv 15 160 60 empty empty empty 20 12 0 14 -203904 -66577
0;
#X obj 1066 79 r laneChanged;
#X floatatom 1066 103 5 0 0 0 - - -;
#X msg 868 400 0;
#X msg 915 401 1;
#X msg 868 433 motor3_pattern1 \$1;
#X msg 875 605 0;
#X msg 922 606 1;
#X msg 875 638 motor4_pattern1 \$1;
#X connect 1 0 14 0;
#X connect 2 0 14 0;
#X connect 4 0 3 0;
#X connect 4 1 3 1;
#X connect 5 1 8 0;
#X connect 6 0 5 0;
#X connect 8 0 9 0;
#X connect 11 0 12 0;
#X connect 13 0 14 0;
#X connect 14 0 4 0;
#X connect 16 0 11 0;
#X connect 17 0 16 0;
#X connect 18 0 16 0;
#X connect 19 0 20 0;
#X connect 20 0 11 0;
#X connect 21 0 20 0;
#X connect 23 0 18 0;
#X connect 23 0 30 0;
#X connect 23 0 33 0;
#X connect 24 0 17 0;
#X connect 24 0 19 0;
#X connect 24 0 31 0;
#X connect 24 0 33 0;
#X connect 25 0 19 0;
#X connect 25 0 17 0;
#X connect 25 0 34 0;
#X connect 25 0 30 0;
#X connect 26 0 21 0;
#X connect 26 0 30 0;
#X connect 26 0 33 0;
#X connect 28 0 29 0;
#X connect 29 0 23 0;
#X connect 29 0 24 0;
#X connect 29 0 25 0;
#X connect 29 0 26 0;
#X connect 30 0 32 0;
#X connect 31 0 32 0;
#X connect 32 0 11 0;
#X connect 33 0 35 0;
#X connect 34 0 35 0;
#X connect 35 0 11 0;
