#N canvas -8 -8 1536 781 12;
#X obj 229 245 bng 15 250 50 0 empty empty empty 17 7 0 10 -262144
-1 -1;
#X obj 231 365 mrpeach/packOSC;
#X obj 231 389 cyclone/prepend send;
#X obj 231 493 netsend -u -b;
#X msg 284 438 connect 127.0.0.1 32000;
#X msg 231 291 /clap;
#X obj 223 71 adc~;
#X obj 222 117 *~ 10;
#X obj 229 201 threshold~ 1 500 0.1 1000;
#X connect 0 0 5 0;
#X connect 1 0 2 0;
#X connect 2 0 3 0;
#X connect 4 0 3 0;
#X connect 5 0 1 0;
#X connect 6 0 7 0;
#X connect 7 0 8 0;
#X connect 8 0 0 0;
