#N canvas 927 229 450 499 12;
#X floatatom 185 115 5 0 0 0 - - -;
#X obj 185 198 bng 15 250 50 0 empty empty empty 17 7 0 10 -262144
-1 -1;
#X obj 185 298 readsf~;
#X obj 185 174 sel 2000;
#X msg 185 244 open bump.wav \, 1;
#X obj 185 322 *~ 0.8;
#X obj 106 425 throw~ left;
#X obj 256 423 throw~ right;
#X obj 185 52 r hitWall;
#X obj 31 61 tgl 15 0 empty empty empty 17 7 0 10 -262144 -1 -1 0 1
;
#X obj 31 23 inlet;
#X obj 31 94 switch~;
#X connect 0 0 3 0;
#X connect 1 0 4 0;
#X connect 2 0 5 0;
#X connect 3 0 1 0;
#X connect 4 0 2 0;
#X connect 5 0 6 0;
#X connect 5 0 7 0;
#X connect 8 0 0 0;
#X connect 9 0 11 0;
#X connect 10 0 9 0;
