#N canvas -8 -8 1536 781 12;
#X msg 45 266 \; pd dsp \$1;
#X obj 45 160 tgl 30 0 empty empty empty 17 7 0 10 -228856 -1 -1 0
1;
#X obj 57 230 s global_volume_fade;
#X text 85 164 <-Click to start/stop DSP;
#X obj 380 221 *~;
#X obj 380 259 dac~ 1 2, f 15;
#X obj 570 169 line~;
#X obj 570 112 r global_volume_fade;
#X obj 483 220 *~;
#X obj 40 485 cnv 15 120 60 empty empty empty 20 12 0 14 -261682 -66577
0;
#X obj 248 485 cnv 15 120 60 empty empty empty 20 12 0 14 -203904 -66577
0;
#X obj 293 505 OSC;
#X obj 445 485 cnv 15 120 60 empty empty empty 20 12 0 14 -204786 -66577
0;
#X obj 77 505 teensy;
#X obj 463 505 sound_engine;
#X obj 379 67 catch~ right;
#X obj 482 67 catch~ left;
#X obj 45 18 r startGame;
#X obj 570 141 pack 0 500;
#X obj 82 54 r startCountdown;
#X text 373 304 "Catch~" receives sounds from "Throw~" objects in the
"sound_engine" subpatch. Specifically \, some audio signals are thrown
only to one channel.;
#X text 42 453 Main subpatches;
#X obj 18 18 cnv 15 20 60 empty empty empty 20 12 0 14 -203904 -66577
0;
#X obj 659 600 cnv 15 20 20 empty empty empty 20 12 0 14 -261234 -66577
0;
#X obj 659 575 cnv 15 20 20 empty empty empty 20 12 0 14 -203904 -66577
0;
#X obj 875 229 snapshot~;
#X obj 875 263 s channel_left_sound;
#X obj 1125 225 snapshot~;
#X obj 1125 259 s channel_right_sound;
#X obj 1005 120 loadbang;
#X obj 1005 152 metro 10;
#X text 884 304 here \, we transform the audio signals received in
catch~ in numbers and we send these numbers to the dashboard on the
laptop to keep track of what is happening on the Pi in the channels
in which audio is played.;
#X text 41 577 Note: OSC messages in the entire patch have a light
purple box close to them. Messages coming from the control patch have
pink boxes close to them., f 87;
#X connect 1 0 0 0;
#X connect 1 0 2 0;
#X connect 4 0 5 0;
#X connect 4 0 27 0;
#X connect 6 0 4 1;
#X connect 6 0 8 1;
#X connect 7 0 18 0;
#X connect 8 0 5 1;
#X connect 8 0 25 0;
#X connect 15 0 4 0;
#X connect 16 0 8 0;
#X connect 17 0 1 0;
#X connect 18 0 6 0;
#X connect 19 0 1 0;
#X connect 25 0 26 0;
#X connect 27 0 28 0;
#X connect 29 0 30 0;
#X connect 30 0 25 0;
#X connect 30 0 27 0;
