#N canvas -8 -8 1536 781 12;
#X obj 625 107 mrpeach/unpackOSC;
#X obj 625 83 netreceive -u -b 12000;
#X floatatom 970 182 5 0 0 0 - - -;
#X floatatom 1094 179 5 0 0 0 - - -;
#X obj 1444 213 s wallDistanceLane1;
#X obj 1589 212 s wallDistanceLane2;
#X obj 1094 214 s laneChanged;
#X floatatom 736 179 5 0 0 0 - - -;
#X obj 736 215 s startGame;
#X obj 53 295 mrpeach/packOSC;
#X obj 53 319 cyclone/prepend send;
#X obj 53 423 netsend -u -b;
#X obj 53 94 r _dir;
#X msg 53 221 /changeLane \$1;
#X msg 106 368 connect 127.0.0.1 32000;
#X obj 234 326 loadbang;
#X text 51 41 Sending IMU data to move ball on Processing. Movement
changes the lane the ball is on. (-1 = left \, 1 = right), f 62;
#X obj 154 690 bng 15 250 50 0 empty empty empty 17 7 0 10 -262144
-1 -1;
#X msg 154 730 /clap;
#X obj 43 128 cnv 15 60 60 empty empty empty 20 12 0 14 -261682 -66577
0;
#X floatatom 53 148 5 0 0 0 - - -;
#X obj 52 731 s jumpSound;
#X floatatom 1361 176 5 0 0 0 - - -;
#X floatatom 1197 178 5 0 0 0 - - -;
#X obj 1361 213 s wallType;
#X floatatom 1444 176 5 0 0 0 - - -;
#X floatatom 1589 176 5 0 0 0 - - -;
#X obj 1732 211 s wallDistanceRed;
#X floatatom 1732 173 5 0 0 0 - - -;
#X floatatom 1860 170 5 0 0 0 - - -;
#X obj 1860 210 s hitWall;
#X floatatom 824 178 5 0 0 0 - - -;
#X obj 824 215 s reachedFinishLine;
#X obj 1197 214 s changeLaneProhibited;
#X obj 970 214 s startCountdown;
#X obj 625 130 mrpeach/routeOSC /startGame /reachedFinishLine /startCountdown
/laneChanged /changeLaneProhibited /wallType /wallDistanceLane1 /wallDistanceLane2
/wallDistanceRed /hitWall /visualMode, f 187;
#X floatatom 1935 173 5 0 0 0 - - -;
#X obj 1935 210 s visualMode;
#X text 282 712 Once the sound of a clap is received from the microphone
\, jump sound is played and the signal is sent to Processing to trigger
jumping of the ball., f 58;
#X obj 147 457 cnv 15 250 200 empty empty empty 20 12 0 14 -262130
-66577 0;
#X obj 155 567 adc~;
#X obj 154 613 bonk~;
#X msg 215 566 minvel \$1;
#X obj 218 541 hsl 128 15 0 127 0 0 empty empty threshold_for_detecting_clap
-2 -8 0 10 -261234 -1 -1 10000 1;
#X obj 216 464 loadbang;
#X msg 216 496 100, f 4;
#X text 617 34 Receiving OSC messages from Processing and sending them
to Sound Engine, f 72;
#X obj 623 241 cnv 15 1500 20 empty empty empty 20 12 0 14 -203904
-66577 0;
#X connect 0 0 35 0;
#X connect 1 0 0 0;
#X connect 2 0 34 0;
#X connect 3 0 6 0;
#X connect 7 0 8 0;
#X connect 9 0 10 0;
#X connect 10 0 11 0;
#X connect 12 0 20 0;
#X connect 13 0 9 0;
#X connect 14 0 11 0;
#X connect 15 0 14 0;
#X connect 17 0 18 0;
#X connect 17 0 21 0;
#X connect 18 0 9 0;
#X connect 20 0 13 0;
#X connect 22 0 24 0;
#X connect 23 0 33 0;
#X connect 25 0 4 0;
#X connect 26 0 5 0;
#X connect 28 0 27 0;
#X connect 29 0 30 0;
#X connect 31 0 32 0;
#X connect 35 0 7 0;
#X connect 35 1 31 0;
#X connect 35 2 2 0;
#X connect 35 3 3 0;
#X connect 35 4 23 0;
#X connect 35 5 22 0;
#X connect 35 6 25 0;
#X connect 35 7 26 0;
#X connect 35 8 28 0;
#X connect 35 9 29 0;
#X connect 35 10 36 0;
#X connect 36 0 37 0;
#X connect 40 0 41 0;
#X connect 41 0 17 0;
#X connect 42 0 41 0;
#X connect 43 0 42 0;
#X connect 44 0 45 0;
#X connect 45 0 43 0;
