#N canvas -8 -8 1536 781 12;
#X obj 705 117 mrpeach/unpackOSC;
#X floatatom 1050 200 5 0 0 0 - - -;
#X floatatom 1174 197 5 0 0 0 - - -;
#X obj 1524 231 s wallDistanceLane1;
#X obj 1669 230 s wallDistanceLane2;
#X obj 1174 232 s laneChanged;
#X floatatom 816 197 5 0 0 0 - - -;
#X obj 816 233 s startGame;
#X obj 53 295 mrpeach/packOSC;
#X obj 53 319 cyclone/prepend send;
#X obj 53 423 netsend -u -b;
#X obj 53 94 r _dir;
#X msg 53 221 /changeLane \$1;
#X obj 234 326 loadbang;
#X obj 154 690 bng 15 250 50 0 empty empty empty 17 7 0 10 -262144
-1 -1;
#X msg 154 730 /clap;
#X obj 43 128 cnv 15 60 60 empty empty empty 20 12 0 14 -261682 -66577
0;
#X floatatom 53 148 5 0 0 0 - - -;
#X obj 52 731 s jumpSound;
#X floatatom 1441 194 5 0 0 0 - - -;
#X floatatom 1277 196 5 0 0 0 - - -;
#X obj 1441 231 s wallType;
#X floatatom 1524 194 5 0 0 0 - - -;
#X floatatom 1669 194 5 0 0 0 - - -;
#X obj 1812 229 s wallDistanceRed;
#X floatatom 1812 191 5 0 0 0 - - -;
#X floatatom 1940 188 5 0 0 0 - - -;
#X obj 1940 228 s hitWall;
#X floatatom 904 196 5 0 0 0 - - -;
#X obj 904 233 s reachedFinishLine;
#X obj 1277 232 s changeLaneProhibited;
#X obj 1050 232 s startCountdown;
#X floatatom 2015 191 5 0 0 0 - - -;
#X obj 2015 228 s visualMode;
#X text 214 667 Once the sound of a clap is received from the microphone
\, jump sound is played and the signal is sent to Processing to trigger
jumping of the ball., f 58;
#X obj 147 457 cnv 15 450 200 empty empty empty 20 12 0 14 -262130
-66577 0;
#X obj 155 567 adc~;
#X obj 154 613 bonk~;
#X msg 215 566 minvel \$1;
#X obj 218 541 hsl 128 15 0 127 0 0 empty empty threshold_for_detecting_clap
-2 -8 0 10 -261234 -1 -1 10000 1;
#X obj 216 464 loadbang;
#X msg 216 496 100, f 4;
#X obj 701 37 cnv 15 1500 35 empty empty empty 20 12 0 14 -203904 -66577
0;
#X obj 116 93 r motor0_status;
#X obj 236 93 r motor1_status;
#X obj 353 93 r motor2_status;
#X obj 467 93 r motor3_status;
#X floatatom 117 117 5 0 0 0 - - -;
#X floatatom 236 117 5 0 0 0 - - -;
#X floatatom 353 117 5 0 0 0 - - -;
#X floatatom 467 117 5 0 0 0 - - -;
#X msg 117 148 /motor0_status \$1;
#X msg 250 147 /motor1_status \$1;
#X msg 379 147 /motor2_status \$1;
#X msg 511 147 /motor3_status \$1;
#X floatatom 1596 298 5 0 0 0 - - -;
#X floatatom 1749 301 5 0 0 0 - - -;
#X obj 1749 324 s all_motors_on_off;
#X obj 1344 497 tgl 15 0 empty empty empty 17 7 0 10 -262144 -1 -1
0 1;
#X obj 1373 494 cyclone/gate;
#X obj 1287 462 tgl 15 0 empty empty empty 17 7 0 10 -262144 -1 -1
0 1;
#X obj 1345 532 tgl 15 0 empty empty empty 17 7 0 10 -262144 -1 -1
0 1;
#X obj 1375 530 cyclone/gate;
#X obj 1112 450 loadbang;
#X msg 1112 474 0;
#X obj 1467 531 print reachedFinishLine;
#X obj 1345 564 tgl 15 0 empty empty empty 17 7 0 10 -262144 -1 -1
0 1;
#X obj 1374 561 cyclone/gate;
#X obj 1346 599 tgl 15 0 empty empty empty 17 7 0 10 -262144 -1 -1
0 1;
#X obj 1376 597 cyclone/gate;
#X obj 1466 562 print startCountdown;
#X obj 1468 598 print laneChanged;
#X obj 1348 633 tgl 15 0 empty empty empty 17 7 0 10 -262144 -1 -1
0 1;
#X obj 1378 631 cyclone/gate;
#X obj 1470 632 print changeLaneProhibited;
#X obj 1350 663 tgl 15 0 empty empty empty 17 7 0 10 -262144 -1 -1
0 1;
#X obj 1380 661 cyclone/gate;
#X obj 1472 662 print wallType;
#X obj 1350 692 tgl 15 0 empty empty empty 17 7 0 10 -262144 -1 -1
0 1;
#X obj 1380 690 cyclone/gate;
#X obj 1472 691 print wallDistanceLane1;
#X obj 1350 724 tgl 15 0 empty empty empty 17 7 0 10 -262144 -1 -1
0 1;
#X obj 1380 722 cyclone/gate;
#X obj 1472 723 print wallDistanceLane2;
#X obj 1350 754 tgl 15 0 empty empty empty 17 7 0 10 -262144 -1 -1
0 1;
#X obj 1380 752 cyclone/gate;
#X obj 1475 754 print wallDistanceRed;
#X obj 1351 782 tgl 15 0 empty empty empty 17 7 0 10 -262144 -1 -1
0 1;
#X obj 1381 780 cyclone/gate;
#X obj 1473 781 print hitWall;
#X obj 1082 779 tgl 15 0 empty empty empty 17 7 0 10 -262144 -1 -1
0 1;
#X obj 1112 777 cyclone/gate;
#X obj 1204 778 print visualMode;
#X obj 1011 745 tgl 15 0 empty empty empty 17 7 0 10 -262144 -1 -1
0 1;
#X obj 1041 743 cyclone/gate;
#X obj 1133 744 print sound_engine_on_off;
#X obj 970 710 tgl 15 0 empty empty empty 17 7 0 10 -262144 -1 -1 0
1;
#X obj 1000 708 cyclone/gate;
#X obj 1092 709 print all_motors_on_off;
#X obj 705 93 netreceive -u -b 2222;
#X obj 1465 495 print startGame;
#X obj 1645 357 cnv 15 400 30 empty empty empty 20 12 0 14 -261234
-66577 0;
#X obj 1596 324 s sound_engine_off;
#X obj 705 140 mrpeach/routeOSC /startGame /reachedFinishLine /startCountdown
/laneChanged /changeLaneProhibited /wallType /wallDistanceLane1 /wallDistanceLane2
/wallDistanceRed /hitWall /visualMode /sound_engine_off /all_motors_on_off
/enable_print /clap_threshold_control, f 187;
#X floatatom 1924 300 5 0 0 0 - - -;
#X obj 1924 323 s clap_threshold_control;
#X obj 347 465 r clap_threshold_control;
#X obj 528 465 cnv 15 20 20 empty empty empty 20 12 0 14 -261234 -66577
0;
#X obj 306 225 r channel_left_sound;
#X obj 491 226 r channel_right_sound;
#X floatatom 306 249 5 0 0 0 - - -;
#X floatatom 491 250 5 0 0 0 - - -;
#X msg 306 272 /channel_left_status \$1;
#X msg 491 273 /channel_right_status \$1;
#X text 745 563 this section here allows to print on the Pi's console
all the incoming OSC Messages ->;
#X text 1666 362 control messages coming from the laptop's dashboard
;
#X text 705 42 Receiving OSC messages from Processing and sending them
to Sound Engine, f 72;
#X text 51 24 Sending IMU data to move ball on Processing. Movement
changes the lane the ball is on. (-1 = left \, 1 = right) and also
sending motor status and audio channel status to monitor those on the
dashboard on the Pi., f 62;
#X msg 107 369 connect 192.168.0.100 3333;
#X connect 0 0 103 0;
#X connect 1 0 31 0;
#X connect 2 0 5 0;
#X connect 6 0 7 0;
#X connect 8 0 9 0;
#X connect 9 0 10 0;
#X connect 11 0 17 0;
#X connect 12 0 8 0;
#X connect 13 0 118 0;
#X connect 14 0 15 0;
#X connect 14 0 18 0;
#X connect 15 0 8 0;
#X connect 17 0 12 0;
#X connect 19 0 21 0;
#X connect 20 0 30 0;
#X connect 22 0 3 0;
#X connect 23 0 4 0;
#X connect 25 0 24 0;
#X connect 26 0 27 0;
#X connect 28 0 29 0;
#X connect 32 0 33 0;
#X connect 36 0 37 0;
#X connect 37 0 14 0;
#X connect 38 0 37 0;
#X connect 39 0 38 0;
#X connect 40 0 41 0;
#X connect 41 0 39 0;
#X connect 43 0 47 0;
#X connect 44 0 48 0;
#X connect 45 0 49 0;
#X connect 46 0 50 0;
#X connect 47 0 51 0;
#X connect 48 0 52 0;
#X connect 49 0 53 0;
#X connect 50 0 54 0;
#X connect 51 0 8 0;
#X connect 52 0 8 0;
#X connect 53 0 8 0;
#X connect 54 0 8 0;
#X connect 55 0 102 0;
#X connect 56 0 57 0;
#X connect 58 0 59 0;
#X connect 59 0 100 0;
#X connect 60 0 58 0;
#X connect 60 0 61 0;
#X connect 60 0 66 0;
#X connect 60 0 68 0;
#X connect 60 0 72 0;
#X connect 60 0 75 0;
#X connect 60 0 78 0;
#X connect 60 0 81 0;
#X connect 60 0 84 0;
#X connect 60 0 87 0;
#X connect 60 0 96 0;
#X connect 60 0 93 0;
#X connect 60 0 90 0;
#X connect 61 0 62 0;
#X connect 62 0 65 0;
#X connect 63 0 64 0;
#X connect 64 0 60 0;
#X connect 66 0 67 0;
#X connect 67 0 70 0;
#X connect 68 0 69 0;
#X connect 69 0 71 0;
#X connect 72 0 73 0;
#X connect 73 0 74 0;
#X connect 75 0 76 0;
#X connect 76 0 77 0;
#X connect 78 0 79 0;
#X connect 79 0 80 0;
#X connect 81 0 82 0;
#X connect 82 0 83 0;
#X connect 84 0 85 0;
#X connect 85 0 86 0;
#X connect 87 0 88 0;
#X connect 88 0 89 0;
#X connect 90 0 91 0;
#X connect 91 0 92 0;
#X connect 93 0 94 0;
#X connect 94 0 95 0;
#X connect 96 0 97 0;
#X connect 97 0 98 0;
#X connect 99 0 0 0;
#X connect 103 0 6 0;
#X connect 103 0 59 1;
#X connect 103 1 28 0;
#X connect 103 1 62 1;
#X connect 103 2 1 0;
#X connect 103 2 67 1;
#X connect 103 3 2 0;
#X connect 103 3 69 1;
#X connect 103 4 20 0;
#X connect 103 4 73 1;
#X connect 103 5 19 0;
#X connect 103 5 76 1;
#X connect 103 6 22 0;
#X connect 103 6 79 1;
#X connect 103 7 23 0;
#X connect 103 7 82 1;
#X connect 103 8 25 0;
#X connect 103 8 85 1;
#X connect 103 9 26 0;
#X connect 103 9 88 1;
#X connect 103 10 32 0;
#X connect 103 10 91 1;
#X connect 103 11 55 0;
#X connect 103 11 94 1;
#X connect 103 12 56 0;
#X connect 103 12 97 1;
#X connect 103 13 60 0;
#X connect 103 14 104 0;
#X connect 104 0 105 0;
#X connect 106 0 39 0;
#X connect 108 0 110 0;
#X connect 109 0 111 0;
#X connect 110 0 112 0;
#X connect 111 0 113 0;
#X connect 112 0 8 0;
#X connect 113 0 8 0;
#X connect 118 0 10 0;
