#N canvas -8 -8 1600 817 12;
#X obj 25 72 cnv 15 800 500 empty empty empty 20 12 0 14 -261682 -66577
0;
#X msg 83 193 close;
#X msg 67 107 devices;
#X obj 73 375 s;
#X obj 73 353 serial_print any;
#X obj 348 135 unpack s int;
#X obj 348 107 r dir;
#X obj 415 170 cnv 15 80 40 empty empty empty 20 12 0 14 -262130 -66577
0;
#X floatatom 429 179 8 0 0 0 - - -;
#X obj 429 226 s _dir;
#X text 65 15 Opening serial communication and then receiving data
about direction of IMU movement from Teensy;
#X obj 918 576 _format_serial_messages;
#X obj 918 604 s to_Teensy;
#X obj 193 262 r to_Teensy;
#X obj 73 329 comport 5 115200;
#X msg 918 327 0;
#X msg 965 328 1;
#X msg 1157 324 0;
#X msg 1204 325 1;
#X text 354 277 "dir" is sent to subpatch "OSC" to deal with movement
of the ball on Processing., f 43;
#X obj 1372 188 sel 0;
#X obj 1428 188 sel 1;
#X obj 1480 186 sel 2;
#X obj 1535 186 sel 3;
#X obj 1392 81 cnv 15 160 60 empty empty empty 20 12 0 14 -203904 -66577
0;
#X obj 1428 87 r laneChanged;
#X floatatom 1428 111 5 0 0 0 - - -;
#X msg 1370 323 0;
#X msg 1417 324 1;
#X msg 1581 323 0;
#X msg 1628 324 1;
#X obj 1025 83 cnv 15 160 60 empty empty empty 20 12 0 14 -203904 -66577
0;
#X text 1028 10 Receiving command to vibrate motors when users go on
specific lanes in Processing. When game is stopped \, they all turn
off. When game is started \, initial lane is activated.;
#X obj 1068 94 r startGame;
#X floatatom 1068 120 5 0 0 0 - - -;
#X obj 1016 187 sel 0;
#X obj 1102 185 sel 1;
#X msg 918 360 motor_lane_0 \$1;
#X msg 1157 357 motor_lane_1 \$1;
#X msg 1370 356 motor_lane_2 \$1;
#X msg 1581 356 motor_lane_3 \$1;
#X connect 1 0 14 0;
#X connect 2 0 14 0;
#X connect 4 0 3 0;
#X connect 4 1 3 1;
#X connect 5 1 8 0;
#X connect 6 0 5 0;
#X connect 8 0 9 0;
#X connect 11 0 12 0;
#X connect 13 0 14 0;
#X connect 14 0 4 0;
#X connect 15 0 37 0;
#X connect 16 0 37 0;
#X connect 17 0 38 0;
#X connect 18 0 38 0;
#X connect 20 0 16 0;
#X connect 20 0 17 0;
#X connect 20 0 27 0;
#X connect 20 0 29 0;
#X connect 21 0 18 0;
#X connect 21 0 15 0;
#X connect 21 0 27 0;
#X connect 21 0 29 0;
#X connect 22 0 28 0;
#X connect 22 0 15 0;
#X connect 22 0 17 0;
#X connect 22 0 29 0;
#X connect 23 0 30 0;
#X connect 23 0 15 0;
#X connect 23 0 17 0;
#X connect 23 0 27 0;
#X connect 25 0 26 0;
#X connect 26 0 20 0;
#X connect 26 0 21 0;
#X connect 26 0 22 0;
#X connect 26 0 23 0;
#X connect 27 0 39 0;
#X connect 28 0 39 0;
#X connect 29 0 40 0;
#X connect 30 0 40 0;
#X connect 33 0 34 0;
#X connect 34 0 36 0;
#X connect 34 0 35 0;
#X connect 35 0 15 0;
#X connect 35 0 17 0;
#X connect 35 0 27 0;
#X connect 35 0 29 0;
#X connect 36 0 27 0;
#X connect 36 0 29 0;
#X connect 36 0 18 0;
#X connect 36 0 15 0;
#X connect 37 0 11 0;
#X connect 38 0 11 0;
#X connect 39 0 11 0;
#X connect 40 0 11 0;
