#N canvas -8 -8 1536 781 12;
#X obj 11 -8 cnv 15 1100 800 empty empty empty 20 12 0 14 -203904 -66577
0;
#X obj 31 118 mrpeach/unpackOSC;
#X floatatom 31 184 5 0 0 0 - - -;
#X obj 31 207 s changeLane;
#X obj 142 207 s clap;
#X text 18 10 Receiving OSC messages from Raspberry Pi;
#X text 17 324 Sending (rerouting) messages to Processing;
#X obj 41 583 mrpeach/packOSC;
#X obj 41 607 cyclone/prepend send;
#X obj 40 726 netsend -u -b;
#X obj 172 644 loadbang;
#X floatatom 39 427 5 0 0 0 - - -;
#X obj 39 392 r changeLane;
#X obj 179 391 r clap;
#X msg 41 452 /changeLane \$1;
#X obj 239 645 r connect_to_processing;
#X obj 31 94 netreceive -u -b 3333;
#X msg 173 685 connect 127.0.0.1 32000;
#X msg 179 454 /clap;
#X floatatom 270 175 5 0 0 0 - - -;
#X floatatom 348 175 5 0 0 0 - - -;
#X floatatom 426 174 5 0 0 0 - - -;
#X floatatom 507 174 5 0 0 0 - - -;
#X obj 270 238 s motor0_status;
#X obj 385 238 s motor1_status;
#X obj 500 238 s motor2_status;
#X obj 613 237 s motor3_status;
#X obj 31 141 mrpeach/routeOSC /changeLane /clap /motor0_status /motor1_status
/motor2_status /motor3_status /channel_left_status /channel_right_status
, f 139;
#X floatatom 737 177 5 0 0 0 - - -;
#X floatatom 885 179 5 0 0 0 - - -;
#X obj 733 236 s channel_left_status;
#X obj 889 236 s channel_right_status;
#X connect 1 0 27 0;
#X connect 2 0 3 0;
#X connect 7 0 8 0;
#X connect 8 0 9 0;
#X connect 10 0 17 0;
#X connect 11 0 14 0;
#X connect 12 0 11 0;
#X connect 13 0 18 0;
#X connect 14 0 7 0;
#X connect 15 0 17 0;
#X connect 16 0 1 0;
#X connect 17 0 9 0;
#X connect 18 0 7 0;
#X connect 19 0 23 0;
#X connect 20 0 24 0;
#X connect 21 0 25 0;
#X connect 22 0 26 0;
#X connect 27 0 2 0;
#X connect 27 1 4 0;
#X connect 27 2 19 0;
#X connect 27 3 20 0;
#X connect 27 4 21 0;
#X connect 27 5 22 0;
#X connect 27 6 28 0;
#X connect 27 7 29 0;
#X connect 28 0 30 0;
#X connect 29 0 31 0;
