#N canvas -8 -8 1536 781 12;
#X obj 13 15 cnv 15 1600 1000 empty empty empty 20 12 0 14 -262130
-66577 0;
#X text 20 21 Receiving OSC messages from Processing (localhost);
#X obj 37 703 mrpeach/packOSC;
#X obj 37 727 cyclone/prepend send;
#X obj 36 846 netsend -u -b;
#X obj 26 512 r startGame;
#X obj 114 512 r reachedFinishLine;
#X obj 261 512 r laneChanged;
#X obj 362 512 r changeLaneProhibited;
#X obj 526 511 r wallType;
#X obj 609 511 r wallDistanceLane1;
#X obj 754 510 r wallDistanceLane2;
#X obj 897 509 r wallDistanceRed;
#X obj 1025 508 r hitWall;
#X obj 156 752 loadbang;
#X obj 223 753 r connect_to_pi;
#X floatatom 27 549 5 0 0 0 - - -;
#X floatatom 131 550 5 0 0 0 - - -;
#X floatatom 314 549 5 0 0 0 - - -;
#X floatatom 434 550 5 0 0 0 - - -;
#X floatatom 615 549 5 0 0 0 - - -;
#X floatatom 719 549 5 0 0 0 - - -;
#X floatatom 888 549 5 0 0 0 - - -;
#X floatatom 1052 551 5 0 0 0 - - -;
#X floatatom 1198 550 5 0 0 0 - - -;
#X msg 27 572 /startGame \$1;
#X msg 131 573 /reachedFinishLine \$1;
#X msg 314 572 /laneChanged \$1;
#X msg 434 573 /changeLaneProhibited \$1;
#X msg 615 572 /wallType \$1;
#X msg 719 572 /wallDistanceLane1 \$1;
#X msg 888 572 /wallDistanceLane2 \$1;
#X msg 1051 573 /wallDistanceRed \$1;
#X msg 1198 573 /hitWall \$1;
#X text 26 455 Sending OSC to Raspberry Pi (rerouting from Processing
to Pi's address), f 71;
#X obj 1099 509 r startCountdown;
#X floatatom 1296 549 5 0 0 0 - - -;
#X msg 1286 572 /startCountdown \$1;
#X obj 26 96 mrpeach/unpackOSC;
#X obj 26 72 netreceive -u -b 12000;
#X floatatom 411 171 5 0 0 0 - - -;
#X floatatom 544 171 5 0 0 0 - - -;
#X obj 902 205 s wallDistanceLane1;
#X obj 1047 204 s wallDistanceLane2;
#X obj 544 206 s laneChanged;
#X floatatom 147 171 5 0 0 0 - - -;
#X obj 147 207 s startGame;
#X floatatom 819 168 5 0 0 0 - - -;
#X floatatom 655 170 5 0 0 0 - - -;
#X obj 819 205 s wallType;
#X floatatom 902 168 5 0 0 0 - - -;
#X floatatom 1047 168 5 0 0 0 - - -;
#X obj 1190 203 s wallDistanceRed;
#X floatatom 1190 165 5 0 0 0 - - -;
#X floatatom 1318 162 5 0 0 0 - - -;
#X obj 1318 202 s hitWall;
#X floatatom 248 170 5 0 0 0 - - -;
#X obj 248 207 s reachedFinishLine;
#X obj 655 206 s changeLaneProhibited;
#X obj 411 206 s startCountdown;
#X obj 1123 681 cnv 15 400 320 empty empty empty 20 12 0 14 -261234
-66577 0;
#X obj 1143 814 r all_motors_on_off;
#X floatatom 1143 848 5 0 0 0 - - -;
#X msg 1143 871 /all_motors_on_off \$1;
#X floatatom 1144 744 5 0 0 0 - - -;
#X obj 1142 922 r enable_print;
#X floatatom 1142 954 5 0 0 0 - - -;
#X msg 1142 976 /enable_print \$1;
#X obj 26 119 mrpeach/routeOSC /startGame /reachedFinishLine /startCountdown
/laneChanged /changeLaneProhibited /wallType /wallDistanceLane1 /wallDistanceLane2
/wallDistanceRed /hitWall /visualMode, f 187;
#X floatatom 1397 164 5 0 0 0 - - -;
#X obj 1397 201 s visualMode;
#X obj 1226 507 r visualMode;
#X floatatom 1427 546 5 0 0 0 - - -;
#X msg 1428 571 /visualMode \$1;
#X obj 1144 710 r sound_engine_off;
#X obj 1323 712 r clap_threshold_control;
#X msg 1144 767 /sound_engine_off \$1;
#X floatatom 1323 744 5 0 0 0 - - -;
#X msg 1324 766 /clap_threshold_control \$1;
#X text 1143 682 messages coming from Dashboard going to Pi;
#X msg 156 773 connect 192.168.0.6 2222;
#X connect 2 0 3 0;
#X connect 3 0 4 0;
#X connect 5 0 16 0;
#X connect 6 0 17 0;
#X connect 7 0 18 0;
#X connect 8 0 19 0;
#X connect 9 0 20 0;
#X connect 10 0 21 0;
#X connect 11 0 22 0;
#X connect 12 0 23 0;
#X connect 13 0 24 0;
#X connect 14 0 80 0;
#X connect 15 0 80 0;
#X connect 16 0 25 0;
#X connect 17 0 26 0;
#X connect 18 0 27 0;
#X connect 19 0 28 0;
#X connect 20 0 29 0;
#X connect 21 0 30 0;
#X connect 22 0 31 0;
#X connect 23 0 32 0;
#X connect 24 0 33 0;
#X connect 25 0 2 0;
#X connect 26 0 2 0;
#X connect 27 0 2 0;
#X connect 28 0 2 0;
#X connect 29 0 2 0;
#X connect 30 0 2 0;
#X connect 31 0 2 0;
#X connect 32 0 2 0;
#X connect 33 0 2 0;
#X connect 35 0 36 0;
#X connect 36 0 37 0;
#X connect 37 0 2 0;
#X connect 38 0 68 0;
#X connect 39 0 38 0;
#X connect 40 0 59 0;
#X connect 41 0 44 0;
#X connect 45 0 46 0;
#X connect 47 0 49 0;
#X connect 48 0 58 0;
#X connect 50 0 42 0;
#X connect 51 0 43 0;
#X connect 53 0 52 0;
#X connect 54 0 55 0;
#X connect 56 0 57 0;
#X connect 61 0 62 0;
#X connect 62 0 63 0;
#X connect 63 0 2 0;
#X connect 64 0 76 0;
#X connect 65 0 66 0;
#X connect 66 0 67 0;
#X connect 67 0 2 0;
#X connect 68 0 45 0;
#X connect 68 1 56 0;
#X connect 68 2 40 0;
#X connect 68 3 41 0;
#X connect 68 4 48 0;
#X connect 68 5 47 0;
#X connect 68 6 50 0;
#X connect 68 7 51 0;
#X connect 68 8 53 0;
#X connect 68 9 54 0;
#X connect 68 10 69 0;
#X connect 69 0 70 0;
#X connect 71 0 72 0;
#X connect 72 0 73 0;
#X connect 73 0 2 0;
#X connect 74 0 64 0;
#X connect 75 0 77 0;
#X connect 76 0 2 0;
#X connect 77 0 78 0;
#X connect 78 0 2 0;
#X connect 80 0 4 0;
