#N canvas -6 69 1536 781 10;
#X text 310 629 Args: object ID;
#X text 754 629 Args: object ID \, n. of modes \, n. of pickups;
#X text 465 439 Args: 1st obj ID \, 2nd obj ID \, n. of outlets;
#X msg 663 19 Sound Design Toolkit \; (C) 2001 - 2016 \; \; Project
SOb - soundobject.org \; Project CLOSED - closed.ircam.fr \; Project
NIW - soundobject.org/niw \; Project SkAT-VG - skatvg.eu;
#X obj 392 107 vsl 15 128 1e-005 1 1 0 empty grain empty 0 -9 0 10
-262144 -1 -1 0 1;
#X obj 504 107 vsl 15 128 0 200 0 0 empty depth empty 0 -9 0 10 -262144
-1 -1 0 1;
#X obj 263 106 vsl 15 128 0 10 0 0 empty velocity empty 0 -9 0 10 -262144
-1 -1 0 1;
#X floatatom 504 243 5 0 0 0 - - -;
#X floatatom 392 243 6 0 0 0 - - -;
#X floatatom 263 243 5 0 0 0 - - -;
#X obj 681 183 select 1;
#X obj 491 468 vsl 30 64 1000 100000 0 0 empty gain empty 0 -9 0 10
-262144 -1 -1 0 1;
#X obj 263 384 rolling~;
#X obj 304 411 r ro;
#X msg 175 263 mass \$1;
#X obj 195 601 r hammerro;
#X obj 614 602 r objectro;
#X obj 175 107 vsl 15 128 0.001 1 0 0 empty mass empty 0 -9 0 10 -262144
-1 -1 0 1;
#X floatatom 175 244 5 0 0 0 - - -;
#X msg 263 262 velocity \$1;
#X text 133 69 Rolling mass (Kg) and velocity (m/s);
#X msg 392 262 grain \$1;
#X text 368 69 Surface grain;
#X msg 504 262 depth \$1;
#X text 479 70 Grain depth;
#X obj 202 296 noise~;
#X msg 197 561 strike 0 0;
#X obj 446 543 *~ 50000;
#X obj 263 439 impact~ hammerro objectro 2;
#X obj 175 628 inertial hammerro;
#X obj 614 629 modal objectro 3 1;
#X text 173 20 rolling~ - Generates a stochastic sequence of impacts
to form a rolling sound, f 77;
#X obj 34 56 tgl 15 0 empty empty empty 17 7 0 10 -262144 -1 -1 0 1
;
#X obj 34 22 inlet;
#X floatatom 936 76 5 0 0 0 - - -;
#X obj 1063 180 select 3;
#X obj 1124 179 select 0;
#X obj 758 183 select 2;
#X obj 936 34 r laneChanged;
#X text 1263 297 <- different lanes generate different rolling sounds
;
#X msg 681 208 \; hammerro fragmentSize 1 \; objectro freqs 500 1300
1700 \; objectro decays 0.03 0.02 0.01 \; objectro pickup 0 100 100
100 \; objectro activeModes 3 \; objectro fragmentSize 1 \; ro stiffness
1e+008 \; ro dissipation 0.8 \; ro shape 1.5 \; ro contact0 0 \; ro
contact1 0 \; mass 0.008 \; velocity 1.181 \; grain 0.0202 \; depth
173.2 \; gain 8000 \;;
#X msg 1063 205 \; hammerro fragmentSize 1 \; objectro freqs 500 1300
1700 \; objectro decays 0.03 0.02 0.01 \; objectro pickup 0 100 100
100 \; objectro activeModes 3 \; objectro fragmentSize 1 \; ro stiffness
1e+008 \; ro dissipation 0.8 \; ro shape 1.5 \; ro contact0 0 \; ro
contact1 0 \; mass 0.008 \; velocity 3 \; grain 0.0021 \; depth 173.2
\; gain 10000 \;;
#X obj 202 323 lop~ 20;
#X obj 202 351 *~ 10;
#X obj 447 669 throw~ left;
#X obj 529 668 throw~ right;
#X obj 34 93 switch~;
#X floatatom 681 139 5 0 0 0 - - -;
#X obj 1023 30 cnv 15 15 30 empty empty empty 20 12 0 14 -203904 -66577
0;
#X connect 4 0 8 0;
#X connect 5 0 7 0;
#X connect 6 0 9 0;
#X connect 7 0 23 0;
#X connect 8 0 21 0;
#X connect 9 0 19 0;
#X connect 10 0 40 0;
#X connect 11 0 27 1;
#X connect 12 0 28 0;
#X connect 13 0 28 0;
#X connect 14 0 12 0;
#X connect 14 0 29 0;
#X connect 15 0 29 0;
#X connect 16 0 30 0;
#X connect 17 0 18 0;
#X connect 18 0 14 0;
#X connect 19 0 12 0;
#X connect 21 0 12 0;
#X connect 23 0 12 0;
#X connect 25 0 42 0;
#X connect 26 0 29 0;
#X connect 27 0 44 0;
#X connect 27 0 45 0;
#X connect 28 1 27 0;
#X connect 32 0 46 0;
#X connect 32 0 47 0;
#X connect 33 0 32 0;
#X connect 34 0 35 0;
#X connect 34 0 36 0;
#X connect 34 0 10 0;
#X connect 34 0 37 0;
#X connect 35 0 41 0;
#X connect 36 0 41 0;
#X connect 37 0 40 0;
#X connect 38 0 34 0;
#X connect 42 0 43 0;
#X connect 43 0 12 0;
#X connect 47 0 10 0;
