#N canvas -8 -8 1536 781 10;
#X obj 249 307 tgl 15 0 empty empty empty 17 7 0 10 -262144 -1 -1 0
1;
#X obj 249 336 _rolling;
#X obj 252 421 jump;
#X obj 252 394 tgl 15 0 empty empty empty 17 7 0 10 -262144 -1 -1 0
1;
#X obj 250 248 AlarmDashboard;
#X obj 250 225 tgl 15 0 empty empty empty 17 7 0 10 -262144 -1 -1 0
1;
#X obj 254 517 swoosh;
#X obj 254 491 tgl 15 0 empty empty empty 17 7 0 10 -262144 -1 -1 0
1;
#X obj 47 27 r startGame;
#X obj 255 573 tgl 15 0 empty empty empty 17 7 0 10 -262144 -1 -1 0
1;
#X obj 255 599 hitWall;
#X obj 258 740 tgl 15 0 empty empty empty 17 7 0 10 -262144 -1 -1 0
1;
#X obj 258 770 EndingMusic;
#X obj 258 692 changeLaneProhibited;
#X obj 258 662 tgl 15 0 empty empty empty 17 7 0 10 -262144 -1 -1 0
1;
#X obj 47 105 tgl 15 0 empty empty empty 17 7 0 10 -262144 -1 -1 0
1;
#X obj 246 148 tgl 15 0 empty empty empty 17 7 0 10 -262144 -1 -1 0
1;
#X obj 246 174 CountDownToStartRace;
#X obj 246 100 r startCountdown;
#X obj 72 53 r visualMode;
#X obj 52 817 r reachedFinishLine;
#X msg 52 787 0;
#X obj 24 26 cnv 15 15 60 empty empty empty 20 12 0 14 -203904 -66577
0;
#X obj 350 92 cnv 15 15 30 empty empty empty 20 12 0 14 -203904 -66577
0;
#X obj 26 804 cnv 15 15 30 empty empty empty 20 12 0 14 -203904 -66577
0;
#X obj 726 34 cnv 15 15 30 empty empty empty 20 12 0 14 -261234 -66577
0;
#X obj 604 39 r sound_engine_off;
#X text 752 39 message coming from the dashboard on the laptop to turn
off the sound engine in case of emergencies;
#X text 179 -6 When the game is started \, the sound engine starts
playing. When the game is stopped \, sound engine stops. Both actions
are due to receiving OSC messages r startGame (1) and r startGame (0).
visualMode also sends 0 and 1 and \, depending on the mode \, it deactivates/activates
the sound engine.;
#X connect 0 0 1 0;
#X connect 3 0 2 0;
#X connect 5 0 4 0;
#X connect 7 0 6 0;
#X connect 8 0 15 0;
#X connect 9 0 10 0;
#X connect 11 0 12 0;
#X connect 14 0 13 0;
#X connect 15 0 5 0;
#X connect 15 0 0 0;
#X connect 15 0 3 0;
#X connect 15 0 7 0;
#X connect 15 0 9 0;
#X connect 15 0 11 0;
#X connect 15 0 14 0;
#X connect 15 0 16 0;
#X connect 16 0 17 0;
#X connect 18 0 16 0;
#X connect 19 0 15 0;
#X connect 20 0 21 0;
#X connect 21 0 14 0;
#X connect 21 0 9 0;
#X connect 21 0 7 0;
#X connect 21 0 3 0;
#X connect 21 0 0 0;
#X connect 21 0 5 0;
#X connect 26 0 15 0;
