#N canvas 779 2 798 801 12;
#X obj 37 91 inlet;
#X obj 261 493 *~ 1;
#X obj 190 558 throw~ left;
#X msg 546 319 0.2;
#X obj 261 432 osc~;
#X obj 490 424 *;
#X obj 418 319 r volume;
#X text 87 596 Receives tempo of the alarm to activate the oscillator
(400Hz) on left ear, f 42;
#X text 401 478 Receives volume: as a wall approaches \, volume increases
, f 29;
#X obj 261 374 *;
#X floatatom 202 326 5 0 0 0 - - -;
#X obj 310 274 loadbang;
#X obj 304 88 r loopStart1;
#X obj 202 274 r tempo;
#X floatatom 418 364 5 0 0 0 - - -;
#X floatatom 546 367 5 0 0 0 - - -;
#X msg 649 318 0;
#X obj 649 217 r loopFinished;
#X obj 667 245 r turnOff1;
#X obj 45 159 s turnOff2;
#X obj 140 158 s turnOff3;
#X obj 235 157 s turnOff4;
#X text 33 191 When this alarm goes on \, the others go off;
#X obj 673 276 loadbang;
#X msg 310 325 440;
#X obj 247 21 cnv 15 200 30 empty empty empty 20 12 0 14 -262130 -66577
0;
#X text 264 26 Yellow Left Alarm (YLA);
#X connect 1 0 2 0;
#X connect 3 0 15 0;
#X connect 4 0 1 0;
#X connect 5 0 1 1;
#X connect 6 0 14 0;
#X connect 9 0 4 0;
#X connect 10 0 9 0;
#X connect 11 0 24 0;
#X connect 12 0 3 0;
#X connect 12 0 19 0;
#X connect 12 0 20 0;
#X connect 12 0 21 0;
#X connect 13 0 10 0;
#X connect 14 0 5 0;
#X connect 15 0 5 1;
#X connect 16 0 15 0;
#X connect 17 0 16 0;
#X connect 18 0 16 0;
#X connect 23 0 16 0;
#X connect 24 0 9 1;
