#N canvas 291 22 814 808 12;
#X obj 50 93 inlet;
#X obj 220 563 throw~ left;
#X obj 356 562 throw~ right;
#X obj 299 490 *~ 1;
#X obj 299 429 osc~;
#X obj 507 425 *;
#X obj 461 323 r volume;
#X msg 568 325 1;
#X text 171 605 Receives tempo of the alarm to activate the oscillator
(400Hz) on both ears, f 42;
#X text 435 483 Receives volume: as a wall approaches \, volume increases
, f 28;
#X obj 299 379 *;
#X floatatom 258 324 5 0 0 0 - - -;
#X obj 341 269 loadbang;
#X obj 313 91 r loopStart2;
#X obj 258 269 r tempo;
#X floatatom 461 375 5 0 0 0 - - -;
#X floatatom 568 379 5 0 0 0 - - -;
#X msg 664 325 0;
#X obj 664 218 r loopFinished;
#X obj 46 161 s turnOff1;
#X obj 141 160 s turnOff3;
#X obj 236 159 s turnOff4;
#X obj 690 249 r turnOff2;
#X text 36 193 When this alarm goes on \, the others go off;
#X obj 703 282 loadbang;
#X msg 341 323 440;
#X obj 258 24 cnv 15 200 30 empty empty empty 20 12 0 14 -262130 -66577
0;
#X text 295 31 Yellow Alarm (YA);
#X connect 3 0 1 0;
#X connect 3 0 2 0;
#X connect 4 0 3 0;
#X connect 5 0 3 1;
#X connect 6 0 15 0;
#X connect 7 0 16 0;
#X connect 10 0 4 0;
#X connect 11 0 10 0;
#X connect 12 0 25 0;
#X connect 13 0 7 0;
#X connect 13 0 19 0;
#X connect 13 0 20 0;
#X connect 13 0 21 0;
#X connect 14 0 11 0;
#X connect 15 0 5 0;
#X connect 16 0 5 1;
#X connect 17 0 16 0;
#X connect 18 0 17 0;
#X connect 22 0 17 0;
#X connect 24 0 17 0;
#X connect 25 0 10 1;
